HIERARCHY
ROOT Hips
{
 OFFSET 0.000000 0.000000 0.000000
 CHANNELS 6 Xposition Yposition Zposition Yrotation Xrotation Zrotation
 JOINT Chest
 {
  OFFSET 0.000000 9.585900 0.002600
  CHANNELS 3 Yrotation Xrotation Zrotation
  JOINT Chest2
  {
   OFFSET 0.000000 9.601200 -0.005300
   CHANNELS 3 Yrotation Xrotation Zrotation
   JOINT Chest3
   {
    OFFSET 0.000000 9.561800 0.000000
    CHANNELS 3 Yrotation Xrotation Zrotation
    JOINT Chest4
    {
     OFFSET 0.000000 9.552100 0.000000
     CHANNELS 3 Yrotation Xrotation Zrotation
     JOINT Neck
     {
      OFFSET 0.000000 14.453000 0.000000
      CHANNELS 3 Yrotation Xrotation Zrotation
      JOINT Head
      {
       OFFSET 0.000000 8.936500 -0.011300
       CHANNELS 3 Yrotation Xrotation Zrotation
       End Site
       {
        OFFSET 0.000000 17.073600 -0.006000
       }
      }
     }
     JOINT RightCollar
     {
      OFFSET -2.921100 9.558500 0.000000
      CHANNELS 3 Yrotation Xrotation Zrotation
      JOINT RightShoulder
      {
       OFFSET -13.519700 0.000000 0.000000
       CHANNELS 3 Yrotation Xrotation Zrotation
       JOINT RightElbow
       {
        OFFSET 0.000000 -29.696600 0.000000
        CHANNELS 3 Yrotation Xrotation Zrotation
        JOINT RightWrist
        {
         OFFSET 0.000000 -24.004700 0.000000
         CHANNELS 3 Yrotation Xrotation Zrotation
         End Site
         {
          OFFSET 0.000000 -17.728500 0.000000
         }
        }
       }
      }
     }
     JOINT LeftCollar
     {
      OFFSET 2.921100 9.558500 0.000000
      CHANNELS 3 Yrotation Xrotation Zrotation
      JOINT LeftShoulder
      {
       OFFSET 13.519700 0.000000 0.000000
       CHANNELS 3 Yrotation Xrotation Zrotation
       JOINT LeftElbow
       {
        OFFSET 0.000000 -29.696600 0.000000
        CHANNELS 3 Yrotation Xrotation Zrotation
        JOINT LeftWrist
        {
         OFFSET 0.000000 -24.004700 0.000000
         CHANNELS 3 Yrotation Xrotation Zrotation
         End Site
         {
          OFFSET 0.000000 -17.728500 0.000000
         }
        }
       }
      }
     }
    }
   }
  }
 }
 JOINT RightHip
 {
  OFFSET -7.771700 -0.012900 -0.001300
  CHANNELS 3 Yrotation Xrotation Zrotation
  JOINT RightKnee
  {
   OFFSET 0.000000 -40.869800 0.001200
   CHANNELS 3 Yrotation Xrotation Zrotation
   JOINT RightAnkle
   {
    OFFSET 0.000000 -39.717900 0.002100
    CHANNELS 3 Yrotation Xrotation Zrotation
    JOINT RightToe
    {
     OFFSET 0.000000 -4.965400 11.033500
     CHANNELS 3 Yrotation Xrotation Zrotation
     End Site
     {
      OFFSET 0.000000 -1.423100 5.872300
     }
    }
   }
  }
 }
 JOINT LeftHip
 {
  OFFSET 7.771700 -0.012900 -0.001300
  CHANNELS 3 Yrotation Xrotation Zrotation
  JOINT LeftKnee
  {
   OFFSET 0.000000 -40.869800 0.001200
   CHANNELS 3 Yrotation Xrotation Zrotation
   JOINT LeftAnkle
   {
    OFFSET 0.000000 -39.717900 0.002100
    CHANNELS 3 Yrotation Xrotation Zrotation
    JOINT LeftToe
    {
     OFFSET 0.000000 -4.965400 11.033500
     CHANNELS 3 Yrotation Xrotation Zrotation
     End Site
     {
      OFFSET 0.000000 -1.423100 5.872300
     }
    }
   }
  }
 }
}
MOTION
Frames: 8
Frame Time: 0.008333
0.000000 85.388000 0.000000 0.000000 -5.767877 0.000000 0.000000 11.653817 0.000000 0.000000 -5.885947 0.000000 0.000000 -0.000000 0.000000 0.000000 -0.000000 0.000000 0.000000 12.528835 0.000000 0.000000 0.711642 0.000000 0.000000 -0.000000 0.000000 0.000000 0.000000 -90.000000 0.000000 -2.309062 0.000000 0.000000 2.309062 0.000000 0.000000 -0.000000 0.000000 0.000000 -0.000000 90.000000 0.000000 -2.309062 0.000000 0.000000 2.309062 0.000000 0.000000 8.520406 0.000000 0.000000 1.905762 0.000000 -0.000000 -4.658285 0.000000 0.000000 -0.000000 0.000000 0.000000 8.520406 0.000000 0.000000 1.905762 0.000000 -0.000000 -4.658285 0.000000 0.000000 -0.000000 0.000000
-68.477559 63.210844 12.523351 165.632755 -51.574598 -2.456406 8.699507 25.460096 4.275709 1.384026 4.364934 0.262132 2.182189 6.941736 0.433990 7.056511 20.807462 2.286533 0.792997 17.850790 2.065529 0.713300 -2.644579 3.652925 4.345877 6.345235 5.313581 -22.847899 -4.051299 -3.341671 -82.164219 -28.990223 124.407470 -9.126727 -26.028662 -28.310671 -8.554168 7.672576 2.777541 18.504710 -9.062784 4.174310 96.955858 -42.449396 -118.254170 33.972607 -28.328857 25.362859 -5.256398 -8.884056 9.418632 -26.636556 74.191590 -25.655127 0.343047 -13.134375 -1.712813 -0.384339 0.843831 -0.172309 -1.830686 -15.119972 -0.088296 13.297485 61.395727 6.389847 -2.723565 -3.720464 1.804104 -0.363909 -0.685634 -0.178226
-68.477115 63.212985 12.526905 165.624677 -51.577049 -2.464854 8.704385 25.462683 4.280832 1.377032 4.372399 0.252043 2.186474 6.952502 0.434865 7.048329 20.815609 2.272711 0.737680 17.868426 2.143154 0.641148 -2.645436 3.761796 4.361224 6.326205 5.321724 -22.852219 -4.062129 -3.355529 -82.185246 -29.003942 124.437187 -9.111999 -26.005916 -28.297990 -8.563757 7.678069 2.764932 18.502801 -9.065345 4.198002 96.952294 -42.444818 -118.254865 33.967053 -28.338331 25.355603 -5.254922 -8.878068 9.431461 -26.617623 74.180257 -25.631549 0.338962 -13.124137 -1.713188 -0.377912 0.839683 -0.174518 -1.829684 -15.114416 -0.085653 13.315637 61.386190 6.420283 -2.707610 -3.724295 1.802652 -0.383085 -0.680479 -0.185703
-68.478205 63.215228 12.530470 165.620815 -51.577956 -2.467922 8.701144 25.470045 4.271121 1.377289 4.377926 0.250778 2.191468 6.950532 0.440294 7.036257 20.838909 2.259737 0.693221 17.877490 2.215749 0.586698 -2.655925 3.862468 4.361716 6.314696 5.318294 -22.845060 -4.069023 -3.367639 -82.204959 -29.002898 124.469592 -9.091150 -25.995340 -28.294578 -8.571020 7.667470 2.758397 18.454723 -9.029757 4.226891 96.987430 -42.425194 -118.264485 33.953777 -28.356473 25.339888 -5.258635 -8.873734 9.432667 -26.588071 74.173393 -25.599936 0.338438 -13.119567 -1.716227 -0.376080 0.838248 -0.175194 -1.841726 -15.112917 -0.098521 13.363054 61.375796 6.477203 -2.687392 -3.723215 1.795120 -0.380977 -0.683109 -0.189833
-68.480430 63.218470 12.533057 165.629817 -51.584510 -2.472516 8.675085 25.495590 4.238011 1.377392 4.389598 0.248473 2.209341 6.932024 0.455041 7.007726 20.892132 2.235432 0.695549 17.844605 2.281869 0.535756 -2.664655 3.971018 4.375529 6.300089 5.308414 -22.849982 -4.069550 -3.389156 -82.209793 -28.957257 124.526452 -9.041299 -25.989060 -28.296766 -8.550927 7.620382 2.767952 18.446186 -9.024255 4.239792 96.919903 -42.410704 -118.211618 33.939049 -28.355618 25.345190 -5.269844 -8.862014 9.423786 -26.550336 74.169489 -25.564658 0.343589 -13.119859 -1.716811 -0.381724 0.838833 -0.177196 -1.850521 -15.103923 -0.109203 13.359717 61.366597 6.483668 -2.686949 -3.716489 1.788275 -0.353021 -0.689422 -0.186054
-68.485364 63.222551 12.533942 165.625911 -51.597185 -2.447600 8.656252 25.523315 4.200830 1.377852 4.395231 0.247866 2.211615 6.938550 0.452764 7.017021 20.876839 2.239596 0.683935 17.850352 2.308216 0.489774 -2.664096 4.100548 4.372213 6.321161 5.300944 -22.859491 -4.069814 -3.395003 -82.272490 -29.006702 124.582267 -9.085714 -25.978528 -28.297872 -8.567540 7.622811 2.746292 18.456411 -9.033656 4.258074 96.843772 -42.397831 -118.154342 33.962230 -28.305659 25.415821 -5.264605 -8.848634 9.398370 -26.539534 74.162977 -25.549315 0.306539 -13.101436 -1.724417 -0.344554 0.820298 -0.162515 -1.846087 -15.088817 -0.137826 13.350024 61.361864 6.484358 -2.719874 -3.721560 1.770376 -0.320710 -0.686513 -0.172141
-68.486128 63.225201 12.536854 165.623239 -51.597586 -2.449184 8.648531 25.538223 4.192052 1.378235 4.400714 0.247197 2.203530 6.957673 0.445364 7.020395 20.873810 2.236775 0.690536 17.828352 2.336139 0.466643 -2.667753 4.222183 4.384838 6.317129 5.295307 -22.860035 -4.084486 -3.389092 -82.312253 -29.054832 124.605773 -9.143070 -25.979391 -28.287523 -8.573631 7.600047 2.723484 18.450753 -9.023662 4.282061 96.804855 -42.382262 -118.118795 33.949831 -28.323305 25.399377 -5.264882 -8.845547 9.399536 -26.526954 74.156433 -25.530285 0.297281 -13.097136 -1.727889 -0.334381 0.817109 -0.158853 -1.875261 -15.087665 -0.152059 13.348873 61.353227 6.493447 -2.681966 -3.716404 1.755858 -0.331094 -0.691008 -0.177510
-68.484776 63.227178 12.540263 165.614570 -51.592957 -2.457180 8.651153 25.548918 4.195908 1.378651 4.406572 0.246392 2.201292 6.973323 0.442518 7.004620 20.919518 2.226691 0.700883 17.796947 2.425486 0.476483 -2.711297 4.271242 4.408749 6.264649 5.286859 -22.874821 -4.071698 -3.399188 -82.334309 -29.065971 124.654096 -9.111204 -25.971893 -28.311590 -8.551993 7.522852 2.725879 18.400509 -8.991497 4.279716 96.802828 -42.375726 -118.090925 33.930279 -28.340096 25.381426 -5.264996 -8.846742 9.410566 -26.507760 74.145905 -25.504365 0.299328 -13.085644 -1.731252 -0.331594 0.813034 -0.158960 -1.889558 -15.091979 -0.143126 13.349183 61.350102 6.496701 -2.665439 -3.713284 1.752156 -0.341042 -0.695623 -0.180583
